<?xml version="1.0" encoding="UTF-8"?><svg id="Layer_2" xmlns="http://www.w3.org/2000/svg" viewBox="0 0 4460.18 928.35"><defs><style>.cls-1{fill:#ff5700;}.cls-1,.cls-2{fill-rule:evenodd;}</style></defs><g id="Logos"><g id="OzoneBg_Black_Logo_01"><path class="cls-2" d="M341.57,2.68C161.13,2.68,0,152.17,0,335.44s161.13,332.76,341.57,332.76,341.56-149.49,341.56-332.76S522,2.68,341.57,2.68h0Zm0,136.28c-106.53,0-193.43,88.26-193.43,196.48s86.89,196.5,193.43,196.5,193.43-88.27,193.43-196.5-86.89-196.48-193.43-196.48h0ZM1559.74,3.28c180.44,0,341.57,149.48,341.57,332.75s-161.14,332.76-341.57,332.76-341.56-149.49-341.56-332.76S1379.32,3.28,1559.74,3.28h0Zm0,136.27c106.55,0,193.44,88.26,193.44,196.49s-86.89,196.49-193.44,196.49-193.43-88.27-193.43-196.49,86.89-196.49,193.43-196.49h0ZM2534.17,17.07V636.43h-108.42l-372.95-418.96,.16,418.15-123.22,.2V16.38l110.86-.04,370.52,411.51-.17-410.78h123.22ZM1247.37,629.66H611.53L1005.29,140.67l-366.85,.18-.19-125.18h643.29l-393.78,488.99,359.62-.17v125.17h0ZM2906.02,3.28c180.43,0,341.56,149.47,341.56,332.75,0,21.64-2.79,41.91-7.07,62.43l-517.82,.17c25.82,77.69,98.32,133.9,183.33,133.9,64.54,0,121.85-32.42,157.03-82.02h162.79c-49.86,127.16-178.96,218.29-319.82,218.29-180.42,0-341.56-149.48-341.56-332.76S2725.6,3.28,2906.02,3.28h0Zm-183.33,270.16h366.66c-25.83-77.7-98.31-133.9-183.33-133.9s-157.51,56.2-183.33,133.9h0Z"/><path class="cls-1" d="M3366.17,515.17c40.76,0,74.01,33.26,74.01,74.01s-33.25,74.03-74.01,74.03-74.01-33.26-74.01-74.03,33.25-74.01,74.01-74.01h0Z"/><path class="cls-1" d="M4214.78,193.43c129.62,0,245.39,105.74,245.39,235.36v264.18c0,129.64-115.75,235.38-245.39,235.38s-245.46-105.74-245.46-235.38c0-1.65,.03-3.3,.06-4.94h106.49c-.03,1.64-.09,3.3-.09,4.94,0,76.56,62.42,138.99,138.99,138.99s139.6-62.43,139.6-138.99v-72.47c-40.35,27.46-88.89,43.66-139.6,43.66-129.62,0-245.43-105.74-245.43-235.37s115.8-235.36,245.43-235.36h0Zm0,96.39c76.53,0,138.95,62.44,138.95,138.97s-62.42,138.97-138.95,138.97-138.97-62.44-138.97-138.97,62.4-138.97,138.97-138.97h0Z"/><path class="cls-1" d="M3695.98,193.02c-51.08,0-99.99,16.4-140.52,44.23l-.06-237.23h-104.83V424.94h.06c-.03,1.13-.06,2.29-.06,3.44,0,129.63,115.78,235.35,245.41,235.35s245.41-105.72,245.41-235.35-115.79-235.36-245.41-235.36h0Zm0,96.37c-76.55,0-138.97,62.43-138.97,138.98s62.42,138.97,138.97,138.97,138.98-62.41,138.98-138.97-62.43-138.98-138.98-138.98h0Z"/></g></g></svg>